<svg width="150" height="36" viewBox="0 0 150 36" fill="none" xmlns="http://www.w3.org/2000/svg">
<path d="M10.8025 1.24023C12.6543 1.24023 14.1975 1.55019 15.4321 1.86015C16.9753 2.48007 18.2099 3.09999 19.1358 4.02987C20.0617 4.95974 20.9877 5.88962 21.6049 7.43942C22.2222 8.67925 22.5309 10.229 22.5309 11.7788C22.5309 12.3988 22.5309 12.7087 22.5309 13.3286C22.5309 13.9486 22.5309 14.2585 22.5309 14.5685C22.5309 14.8784 22.5309 15.4984 22.5309 15.8083C22.5309 16.1183 22.5309 16.7382 22.5309 17.0481C22.5309 18.5979 22.2222 19.8378 21.6049 21.3876C20.9877 22.3175 20.0617 23.2473 19.1358 24.1772C18.2099 25.1071 16.9753 26.037 15.7407 26.3469C14.1975 26.9668 12.6543 27.2768 11.1111 27.2768H0.925926C0.617284 27.2768 0.308642 27.2768 0.308642 26.9668C0 26.6569 0 26.3469 0 26.037V2.17011C0 1.86015 0 1.55019 0.308642 1.55019C0.617284 1.24023 0.617284 1.24023 0.925926 1.24023H10.8025ZM15.7407 11.4689C15.7407 8.67925 13.8889 7.12946 10.8025 7.12946H6.79012V21.3876H10.8025C13.8889 21.3876 15.4321 19.8378 15.7407 17.0481C15.7407 16.4282 15.7407 16.1183 15.7407 15.4984C15.7407 14.8784 15.7407 14.5685 15.7407 14.2585C15.7407 13.9486 15.7407 13.3286 15.7407 13.0187C15.7407 12.7087 15.7407 11.7788 15.7407 11.4689Z" fill="white"/>
<path d="M45.679 16.1177C45.679 16.4277 45.679 17.0476 45.679 17.6675C45.679 18.2874 45.679 18.5974 45.679 19.2173C45.679 20.4571 45.3704 21.387 44.7531 22.6269C44.1358 23.5567 43.5185 24.4866 42.5926 25.4165C41.6667 26.3464 40.7408 26.6563 39.5062 27.2762C38.2716 27.5862 37.0371 27.8962 35.4939 27.8962C33.9506 27.8962 32.7161 27.5862 31.4815 27.2762C30.2469 26.9663 29.321 26.3464 28.3951 25.4165C27.4692 24.1767 26.8519 23.2468 26.2346 22.3169C25.926 21.387 25.6173 20.1472 25.6173 18.9074C25.6173 18.5974 25.6173 17.9775 25.6173 17.3576C25.6173 16.7376 25.6173 16.4277 25.6173 15.8078C25.6173 14.5679 25.926 13.638 26.5432 12.3982C27.1605 11.4683 27.7778 10.5385 28.7037 9.60858C29.6297 8.6787 30.5556 8.05878 31.7901 7.74882C33.0247 7.43887 34.2593 7.12891 35.8025 7.12891C37.3457 7.12891 38.5803 7.43887 39.8148 7.74882C41.0494 8.05878 41.9753 8.6787 42.9013 9.60858C43.8272 10.5385 44.4445 11.1584 45.0618 12.3982C45.3704 13.638 45.679 14.8779 45.679 16.1177ZM32.0988 18.5974C32.0988 19.5273 32.4074 20.1472 33.0247 20.7671C33.9506 21.387 34.5679 21.697 35.4939 21.697C36.4198 21.697 37.3457 21.387 37.963 20.7671C38.5803 20.1472 38.8889 19.5273 38.8889 18.5974C38.8889 18.2874 38.8889 17.6675 38.8889 17.3576C38.8889 16.7376 38.8889 16.4277 38.8889 16.1177C38.8889 15.1878 38.5803 14.5679 37.963 13.948C37.3457 13.3281 36.4198 13.0181 35.4939 13.0181C34.5679 13.0181 33.642 13.3281 33.0247 13.948C32.4074 14.5679 32.0988 15.1878 32.0988 16.1177C32.0988 16.4277 32.0988 17.0476 32.0988 17.3576C32.0988 17.9775 32.0988 18.2874 32.0988 18.5974Z" fill="white"/>
<path d="M79.6296 26.037C79.6296 26.347 79.6296 26.6569 79.321 26.6569C79.0124 26.9669 79.0123 26.9669 78.7037 26.9669H74.0741C73.7654 26.9669 73.4568 26.9669 73.4568 26.6569C73.1481 26.347 73.1482 26.347 73.1482 26.037V16.7382C73.1482 15.4984 72.8395 14.5685 72.5309 13.9486C72.2222 13.3287 71.2963 13.0187 70.3704 13.0187C69.4444 13.0187 68.8272 13.3287 68.5185 13.9486C68.2099 14.5685 67.5926 15.4984 67.5926 16.7382V26.347C67.5926 26.6569 67.5926 26.9669 67.284 26.9669C66.9753 27.2768 66.9753 27.2768 66.6667 27.2768H62.037C61.7284 27.2768 61.4198 27.2768 61.4198 26.9669C61.1111 26.6569 61.1111 26.6569 61.1111 26.347V16.7382C61.1111 15.4984 60.8025 14.5685 60.4938 13.9486C60.1852 13.3287 59.2593 13.0187 58.3333 13.0187C57.4074 13.0187 56.7901 13.3287 56.4815 13.6386C56.1728 14.2586 55.8642 14.8785 55.8642 16.1183V25.727C55.8642 26.037 55.8642 26.347 55.5556 26.347C55.2469 26.6569 55.2469 26.6569 54.9383 26.6569H50.3086C50 26.6569 49.6914 26.6569 49.6914 26.347C49.3827 26.037 49.3827 26.037 49.3827 25.727V8.67929C49.3827 8.36933 49.3827 8.05937 49.6914 8.05937C50 7.74941 50 7.74941 50.3086 7.74941H54.9383C55.2469 7.74941 55.5556 7.74941 55.5556 8.05937C55.5556 8.36933 55.5556 8.67929 55.5556 8.67929V9.60917C56.1728 8.98925 56.7901 8.36933 57.4074 8.05937C58.3333 7.74941 58.9506 7.43945 60.1852 7.43945C61.4198 7.43945 62.6543 7.74941 63.5803 8.05937C64.5062 8.36933 65.4321 9.29921 66.0494 10.2291C66.9753 9.29921 67.9012 8.67929 68.8272 8.05937C69.7531 7.43945 70.9877 7.43945 72.2222 7.43945C73.1482 7.43945 74.3827 7.74941 75.3086 8.05937C76.2346 8.36933 76.8519 8.98925 77.7778 9.60917C78.3951 10.2291 79.0124 11.159 79.321 12.3988C79.6296 13.3287 79.9383 14.8785 79.9383 16.1183V26.037H79.6296Z" fill="white"/>
<path d="M90.4321 4.64939C90.4321 4.95935 90.4321 5.2693 90.1235 5.2693C89.8148 5.57926 89.8148 5.57926 89.5062 5.57926H84.8765C84.5679 5.57926 84.2593 5.57926 84.2593 5.2693C83.9506 4.95935 83.9506 4.95935 83.9506 4.64939V0.929877C83.9506 0.619918 83.9506 0.309959 84.2593 0.309959C84.2593 0 84.2593 0 84.5679 0H89.1975C89.5062 0 89.8148 0 89.8148 0.309959C90.1235 0.619918 90.1235 0.619918 90.1235 0.929877V4.64939H90.4321Z" fill="#FF4747"/>
<path d="M90.4321 26.0366C90.4321 26.3466 90.4321 26.6565 90.1235 26.6565C89.8148 26.9665 89.8148 26.9665 89.5062 26.9665H84.8765C84.5679 26.9665 84.2593 26.9665 84.2593 26.6565C83.9506 26.3466 83.9506 26.3466 83.9506 26.0366V8.6789C83.9506 8.36894 83.9506 8.05898 84.2593 8.05898C84.5679 7.74902 84.5679 7.74902 84.8765 7.74902H89.5062C89.8148 7.74902 90.1235 7.74902 90.1235 8.05898C90.4321 8.36894 90.4321 8.36894 90.4321 8.6789V26.0366Z" fill="white"/>
<path d="M114.198 26.037C114.198 26.347 114.198 26.6569 113.889 26.6569C113.58 26.9669 113.58 26.9669 113.272 26.9669H108.642C108.333 26.9669 108.025 26.9669 108.025 26.6569C107.716 26.347 107.716 26.347 107.716 26.037V16.7382C107.716 15.8083 107.407 14.8785 106.79 14.2586C106.173 13.6386 105.556 13.3287 104.321 13.3287C103.086 13.3287 102.469 13.6386 101.852 14.2586C101.235 14.8785 101.235 15.8083 101.235 16.7382V26.037C101.235 26.347 101.235 26.6569 100.926 26.6569C100.617 26.9669 100.617 26.9669 100.309 26.9669H95.679C95.3704 26.9669 95.0617 26.9669 95.0617 26.6569C94.7531 26.347 94.7531 26.347 94.7531 26.037V8.67929C94.7531 8.36933 94.7531 8.05937 95.0617 8.05937C95.3704 7.74941 95.3704 7.74941 95.679 7.74941H100.309C100.617 7.74941 100.926 7.74941 100.926 8.05937C101.235 8.36933 101.235 8.36933 101.235 8.67929V9.60917C101.235 9.29921 101.543 9.29921 101.852 8.98925C102.16 8.67929 102.469 8.36933 102.778 8.36933C103.086 8.36933 103.704 8.05937 104.321 7.74941C104.938 7.74941 105.556 7.43945 106.173 7.43945C107.407 7.43945 108.333 7.74941 109.568 8.05937C110.494 8.36933 111.42 8.98925 112.037 9.60917C112.654 10.2291 113.272 11.159 113.58 12.3988C114.198 13.3287 114.198 14.5685 114.198 15.8083V26.037Z" fill="white"/>
<path d="M124.691 0.309959C124.691 0 124.383 0 124.074 0H119.444C119.136 0 118.827 0 118.827 0.309959C118.519 0.619918 118.519 0.619918 118.519 0.929877V4.64939C118.519 4.95935 118.519 5.2693 118.827 5.2693C119.136 5.57926 119.136 5.57926 119.444 5.57926H124.074C124.383 5.57926 124.691 5.57926 124.691 5.2693C125 4.95935 125 4.95935 125 4.64939V0.929877C125 0.619918 125 0.619918 124.691 0.309959Z" fill="white"/>
<path d="M125 8.6789V26.0366C125 26.3466 125 26.6565 124.691 26.6565C124.383 26.9665 124.383 26.9665 124.074 26.9665H119.444C119.136 26.9665 118.827 26.9665 118.827 26.6565C118.519 26.3466 118.519 26.3466 118.519 26.0366V8.6789C118.519 8.36894 118.519 8.05898 118.827 8.05898C119.136 7.74902 119.136 7.74902 119.444 7.74902H124.074C124.383 7.74902 124.691 7.74902 124.691 8.05898C125 8.36894 125 8.6789 125 8.6789Z" fill="white"/>
<path d="M136.111 13.948C136.111 13.948 139.506 15.8077 139.506 17.0476C139.506 18.2874 136.111 20.1472 136.111 20.1472V26.3463C136.111 26.6563 136.111 26.9663 135.802 26.9663C135.494 27.2762 135.494 27.2762 135.185 27.2762H130.556C130.247 27.2762 129.938 27.2762 129.938 26.9663C129.63 26.6563 129.63 26.6563 129.63 26.3463V1.85956C129.63 1.54961 129.63 1.23965 129.938 1.23965C130.247 0.929687 130.247 0.929688 130.556 0.929688H135.185C135.494 0.929688 135.802 0.929687 135.802 1.23965C136.111 1.54961 136.111 1.54961 136.111 1.85956V13.948Z" fill="white"/>
<path d="M150 26.3466C150 26.6565 150 26.9665 149.691 26.9665C149.691 27.2764 149.383 27.2764 149.074 27.2764H143.518C143.21 27.2764 142.901 27.2764 142.593 26.9665C142.593 26.9665 142.593 26.9665 142.284 26.9665C141.975 26.9665 141.975 26.6565 141.975 26.6565L137.654 21.6972L133.951 17.6677C133.642 17.3578 133.642 16.7378 133.951 16.1179L141.049 8.36894C141.049 8.36894 141.358 8.05898 141.667 8.05898C141.975 8.05898 142.284 7.74902 142.593 7.74902H148.148C148.457 7.74902 148.457 7.74902 148.765 8.05898C149.074 8.36894 149.074 8.36894 149.074 8.6789V8.98886L148.765 9.29882L142.284 16.7378L150 25.4167C149.691 25.7267 149.691 25.7267 150 26.3466C150 26.0366 150 26.0366 150 26.3466Z" fill="#FA7902"/>
</svg>
