<?xml version="1.0" standalone="no"?>
<!DOCTYPE svg PUBLIC "-//W3C//DTD SVG 20010904//EN"
 "http://www.w3.org/TR/2001/REC-SVG-20010904/DTD/svg10.dtd">
<svg version="1.0" xmlns="http://www.w3.org/2000/svg"
 width="500.000000pt" height="500.000000pt" viewBox="0 0 500.000000 500.000000"
 preserveAspectRatio="xMidYMid meet">
<metadata>
Created by potrace 1.14, written by Peter Selinger 2001-2017
</metadata>
<g transform="translate(0.000000,500.000000) scale(0.100000,-0.100000)"
fill="#000000" stroke="none">
<path d="M3650 4015 c-8 -2 -49 -9 -90 -15 -291 -47 -518 -199 -618 -412 -25
-55 -35 -86 -59 -183 -2 -11 -6 -70 -8 -131 -5 -215 45 -356 174 -484 148
-147 342 -221 800 -305 56 -10 76 -15 130 -31 269 -78 387 -204 395 -423 5
-143 -29 -238 -118 -326 -72 -73 -155 -111 -328 -151 -13 -3 -90 -7 -173 -9
-259 -5 -466 45 -744 180 l-127 62 -1 -183 0 -183 41 -15 c121 -46 343 -105
473 -126 40 -6 85 -14 100 -16 56 -10 390 -12 458 -3 521 65 783 307 799 737
11 312 -112 545 -362 684 -101 57 -300 125 -412 142 -19 3 -89 17 -155 31 -66
14 -140 30 -165 35 -133 26 -281 91 -339 149 -29 29 -68 107 -76 151 -11 59
-7 172 9 222 51 168 197 273 426 306 63 9 294 8 360 -2 131 -19 325 -81 476
-150 40 -19 74 -34 75 -33 1 1 2 80 3 175 l1 173 -80 24 c-115 35 -229 64
-273 71 -20 3 -44 7 -52 9 -8 2 -35 7 -60 11 -25 3 -56 8 -70 10 -30 5 -388
13 -410 9z"/>
<path d="M1119 3923 c-38 -103 -122 -324 -134 -353 -8 -19 -86 -224 -174 -455
-87 -231 -219 -575 -291 -765 -73 -190 -145 -379 -160 -420 -24 -67 -47 -126
-137 -360 -13 -36 -28 -74 -33 -85 -5 -11 -22 -56 -38 -100 -17 -44 -33 -88
-37 -97 -7 -17 6 -18 183 -18 172 0 191 2 197 18 16 41 99 272 166 465 l73
207 604 -2 604 -3 88 -250 c49 -137 103 -292 120 -342 l33 -93 188 0 188 0
-28 78 c-16 42 -45 118 -64 167 -19 50 -84 223 -146 385 -61 162 -118 311
-126 330 -7 19 -29 76 -48 125 -50 133 -142 374 -386 1015 l-219 575 -206 3
-206 2 -11 -27z m262 -458 c5 -11 48 -126 95 -255 48 -129 97 -262 109 -295
12 -33 59 -161 104 -285 46 -124 87 -234 91 -245 5 -11 18 -44 29 -72 l19 -53
-493 0 -492 0 184 498 c101 273 211 573 245 666 l62 169 19 -54 c10 -30 23
-63 28 -74z"/>
</g>
</svg>
